HIERARCHY
ROOT Hips
{
	OFFSET 0.000000 0.000000 0.000000
	CHANNELS 6 Xposition Yposition Zposition Zrotation Yrotation Xrotation 
	JOINT LHipJoint
	{
		OFFSET 0.000000 0.000000 0.000000
		CHANNELS 3 Zrotation Yrotation Xrotation
		JOINT LeftUpLeg
		{
			OFFSET 1.363060 -1.794630 0.839290
			CHANNELS 3 Zrotation Yrotation Xrotation
			JOINT LeftLeg
			{
				OFFSET 2.448110 -6.726130 0.000000
				CHANNELS 3 Zrotation Yrotation Xrotation
				JOINT LeftFoot
				{
					OFFSET 2.562200 -7.039590 0.000000
					CHANNELS 3 Zrotation Yrotation Xrotation
					JOINT LeftToeBase
					{
						OFFSET 0.157640 -0.433110 2.322550
						CHANNELS 3 Zrotation Yrotation Xrotation
						End Site
						{
							OFFSET 0.000000 0.000000 0.000000
						}
					}
				}
			}
		}
	}
	JOINT RHipJoint
	{
		OFFSET 0.000000 0.000000 0.000000
		CHANNELS 3 Zrotation Yrotation Xrotation
		JOINT RightUpLeg
		{
			OFFSET -1.305520 -1.794630 0.839290
			CHANNELS 3 Zrotation Yrotation Xrotation
			JOINT RightLeg
			{
				OFFSET -2.542530 -6.985550 0.000000
				CHANNELS 3 Zrotation Yrotation Xrotation
				JOINT RightFoot
				{
					OFFSET -2.568260 -7.056230 0.000000
					CHANNELS 3 Zrotation Yrotation Xrotation
					JOINT RightToeBase
					{
						OFFSET -0.164730 -0.452590 2.363150
						CHANNELS 3 Zrotation Yrotation Xrotation
						End Site
						{
							OFFSET 0.000000 0.000000 0.000000
						}
					}
				}
			}
		}
	}
	JOINT LowerBack
	{
		OFFSET 0.000000 0.000000 0.000000
		CHANNELS 3 Zrotation Yrotation Xrotation
		JOINT Spine
		{
			OFFSET 0.028270 2.035590 -0.193380
			CHANNELS 3 Zrotation Yrotation Xrotation
			JOINT Spine1
			{
				OFFSET 0.056720 2.048850 -0.042750
				CHANNELS 3 Zrotation Yrotation Xrotation
				JOINT Neck
				{
					OFFSET 0.000000 0.000000 0.000000
					CHANNELS 3 Zrotation Yrotation Xrotation
					JOINT Neck1
					{
						OFFSET -0.054170 1.746240 0.172020
						CHANNELS 3 Zrotation Yrotation Xrotation
						JOINT Head
						{
							OFFSET 0.104070 1.761360 -0.123970
							CHANNELS 3 Zrotation Yrotation Xrotation
							End Site
							{
								OFFSET 0.000000 0.000000 0.000000
							}
						}
					}
				}
				JOINT LeftShoulder
				{
					OFFSET 0.000000 0.000000 0.000000
					CHANNELS 3 Zrotation Yrotation Xrotation
					JOINT LeftArm
					{
						OFFSET 3.362410 1.200890 -0.311210
						CHANNELS 3 Zrotation Yrotation Xrotation
						JOINT LeftForeArm
						{
							OFFSET 4.983000 -0.000000 -0.000000
							CHANNELS 3 Zrotation Yrotation Xrotation
							JOINT LeftHand
							{
								OFFSET 3.483560 -0.000000 -0.000000
								CHANNELS 3 Zrotation Yrotation Xrotation
								JOINT LeftFingerBase
								{
									OFFSET 0.000000 0.000000 0.000000
									CHANNELS 3 Zrotation Yrotation Xrotation
									JOINT LeftHandIndex1
									{
										OFFSET 0.715260 -0.000000 -0.000000
										CHANNELS 3 Zrotation Yrotation Xrotation
										End Site
										{
											OFFSET 0.000000 0.000000 0.000000
										}
									}
								}
								JOINT LThumb
								{
									OFFSET 0.000000 0.000000 0.000000
									CHANNELS 3 Zrotation Yrotation Xrotation
									End Site
									{
										OFFSET 0.000000 0.000000 0.000000
									}
								}
							}
						}
					}
				}
				JOINT RightShoulder
				{
					OFFSET 0.000000 0.000000 0.000000
					CHANNELS 3 Zrotation Yrotation Xrotation
					JOINT RightArm
					{
						OFFSET -3.136600 1.374050 -0.404650
						CHANNELS 3 Zrotation Yrotation Xrotation
						JOINT RightForeArm
						{
							OFFSET -5.241900 -0.000000 -0.000000
							CHANNELS 3 Zrotation Yrotation Xrotation
							JOINT RightHand
							{
								OFFSET -3.444170 -0.000000 -0.000000
								CHANNELS 3 Zrotation Yrotation Xrotation
								JOINT RightFingerBase
								{
									OFFSET 0.000000 0.000000 0.000000
									CHANNELS 3 Zrotation Yrotation Xrotation
									JOINT RightHandIndex1
									{
										OFFSET -0.622530 -0.000000 -0.000000
										CHANNELS 3 Zrotation Yrotation Xrotation
										End Site
										{
											OFFSET 0.000000 0.000000 0.000000
										}
									}
								}
								JOINT RThumb
								{
									OFFSET 0.000000 0.000000 0.000000
									CHANNELS 3 Zrotation Yrotation Xrotation
									End Site
									{
										OFFSET 0.000000 0.000000 0.000000
									}
								}
							}
						}
					}
				}
			}
		}
	}
}
MOTION
Frames: 8
Frame Time: 0.008333
22.071006 18.791180 31.021134 -1.250002 -12.400925 7.536565 -18.563163 2.445321 2.307296 -0.508492 -0.657120 -27.160427 -1.237872 -13.650960 22.751911 -9.538129 33.463923 7.569736 0.232820 -0.407851 1.902698 14.489962 -3.632455 2.914421 -0.734005 1.072765 -28.542744 43.433836 7.215770 80.176505 20.353002 -55.510929 -34.211043 0.124054 0.561065 -4.881325 -0.314146 0.938346 7.246835 0.586741 1.248002 -3.689687 -1.726117 1.167382 0.585117 -3.268255 -2.829075 -5.268219 -1.880188 -1.008350 38.934343 -6.985860 0.930677 15.071671 -10.506305 -9.427125 2.178727 -70.910839 -12.654132 50.588595 5.422548 -5.475184 -5.069272 2.879974 -1.572190 -4.452838 -0.816255 0.115606 0.000000 0.000000 0.000000 0.000000 0.000000 0.000000 0.000000 12.121379 13.370670 4.766675 73.743258 22.295478 44.864172 -4.894459 10.205516 3.716913 -2.320589 2.189146 4.510050 0.582190 -0.140293 0.000000 0.000000 0.000000 0.000000 0.000000 0.000000 0.000000
22.072704 18.805441 31.092380 -1.438929 -12.402031 7.606386 -18.562761 2.476511 2.320900 -0.430670 -0.470512 -27.027766 -0.843573 -12.834495 22.324072 -9.468633 32.553759 7.920246 0.239045 -0.406615 1.943275 14.385946 -3.485727 2.862180 -0.804549 1.051179 -28.889936 43.585400 7.448165 80.163473 21.808304 -54.765977 -35.843961 0.053352 0.256797 -3.873111 -0.198132 0.812242 7.279196 0.606067 1.113043 -3.681482 -1.519644 1.024657 0.636338 -3.323191 -2.777989 -5.326300 -1.939243 -1.126686 39.164023 -7.429401 0.860619 14.688771 -10.451228 -9.445600 2.056744 -70.948868 -13.010243 49.959230 5.444690 -5.967370 -4.891357 3.174600 -1.889827 -4.257517 -0.938954 0.198293 0.000000 0.000000 0.000000 0.000000 0.000000 0.000000 0.000000 12.319487 13.168316 4.959451 73.589674 22.536451 44.556513 -4.239272 9.778653 4.829301 -0.692501 1.819498 5.543712 -0.025316 -0.103047 -0.000000 0.000000 0.000000 0.000000 0.000000 0.000000 0.000000
22.072367 18.820735 31.169521 -1.542582 -12.404679 7.573290 -18.579683 2.532990 2.397516 -0.199328 -0.597890 -26.753252 -1.207234 -13.206990 22.634351 -9.522448 33.063352 7.340463 0.246846 -0.381176 1.971624 14.276860 -3.394984 2.826723 -0.928637 1.130572 -29.133546 43.440488 7.625401 79.803257 22.153041 -54.997370 -36.203596 0.184414 0.681844 -1.856227 -0.113354 0.708686 7.294985 0.620093 1.008083 -3.678920 -1.391829 0.916270 0.667381 -3.383204 -2.793165 -5.297455 -1.868385 -0.925986 39.135713 -7.105248 1.040442 15.093035 -10.379735 -9.616061 1.980991 -71.054122 -13.119389 50.309393 5.796860 -6.225896 -5.177957 3.266363 -1.732101 -4.445058 -0.950277 0.115216 0.000000 0.000000 0.000000 0.000000 0.000000 0.000000 0.000000 12.431639 13.224727 5.077692 73.434737 22.518880 43.820357 -3.943938 9.438971 5.555311 -0.984423 1.789182 6.148808 0.100119 -0.095093 -0.000000 0.000000 0.000000 0.000000 0.000000 0.000000 0.000000
22.072228 18.831207 31.240240 -1.716179 -12.293556 7.680537 -18.584238 2.596246 2.404724 -0.385302 0.054624 -27.021002 -1.051597 -13.189140 22.830726 -9.499044 32.187014 7.398543 0.258095 -0.349440 2.017004 14.172099 -3.309493 2.791472 -0.800012 0.914430 -29.612562 43.321830 8.037765 79.592061 21.297767 -55.872347 -35.459710 0.107667 0.487072 -4.600651 0.053892 0.563600 7.281815 0.640062 0.850288 -3.682870 -1.287533 0.754438 0.667577 -3.436768 -2.797298 -5.314746 -1.934988 -0.832720 39.146544 -6.848926 1.037227 15.248968 -10.256393 -9.666691 1.898540 -71.134345 -13.361904 50.474386 6.034429 -6.587523 -5.266992 3.319408 -1.956352 -4.467987 -0.961927 0.174833 0.000000 0.000000 0.000000 0.000000 0.000000 0.000000 0.000000 12.458636 13.097776 5.174663 73.427256 22.624383 43.449459 -3.720189 9.053629 6.116699 -1.133517 1.453535 6.628906 0.149856 0.019980 -0.000000 0.000000 0.000000 0.000000 0.000000 0.000000 0.000000
22.070791 18.850473 31.313660 -1.796804 -12.267510 7.604949 -18.606750 2.731212 2.459247 -0.387572 0.301812 -26.933559 -1.700353 -14.515147 23.689336 -9.647677 33.058224 6.494480 0.268258 -0.312516 2.050103 14.102817 -3.295238 2.779691 -0.910368 0.887696 -29.794771 42.924586 8.530238 79.075315 21.836336 -55.598796 -35.855279 0.113495 0.508273 -4.548138 0.105042 0.453413 7.375968 0.651879 0.738381 -3.670579 -1.183025 0.641606 0.621800 -3.462209 -2.797720 -5.247603 -2.075756 -0.903808 39.537353 -7.042197 0.920005 14.773125 -10.178726 -9.813660 1.752012 -71.142354 -13.427535 50.434593 6.215429 -6.901131 -5.139828 3.590961 -1.827756 -4.272397 -1.053492 0.094899 0.000000 0.000000 0.000000 0.000000 0.000000 0.000000 0.000000 12.505415 13.117382 5.239561 73.407585 22.455679 42.975525 -3.610912 8.682533 6.367757 -1.319771 1.236495 6.827907 0.217141 0.093725 -0.000000 0.000000 0.000000 0.000000 0.000000 0.000000 0.000000
22.067979 18.864018 31.381602 -1.928162 -12.180001 7.690856 -18.591860 2.786814 2.446996 -0.581229 0.898819 -27.155354 -2.467990 -16.399676 24.981285 -9.846480 33.983578 5.719916 0.154258 0.339622 0.725127 14.018869 -3.196844 2.777636 -0.990595 0.922716 -30.062395 42.601586 9.107925 78.412891 21.812622 -55.654213 -35.854338 0.224400 0.828217 -1.946416 0.221205 0.345669 7.385287 0.666350 0.623244 -3.675418 -1.104486 0.522372 0.654386 -3.452907 -2.755678 -5.282196 -1.820256 -0.761636 39.492160 -6.998046 1.188234 15.208763 -10.064747 -9.892210 1.826556 -71.161743 -13.796113 49.987115 5.783567 -7.234597 -3.993190 0.816443 -1.917543 -3.024963 0.003125 0.171396 0.000000 0.000000 0.000000 0.000000 0.000000 0.000000 0.000000 12.454694 13.014533 5.208145 73.493985 22.394622 42.811577 -3.600607 8.286809 6.338799 -1.484008 1.039869 6.770629 0.274068 0.155167 -0.000000 0.000000 0.000000 0.000000 0.000000 0.000000 0.000000
22.061483 18.870859 31.448745 -2.093821 -12.104267 7.866601 -18.550736 2.824655 2.457860 -0.900335 1.667055 -27.666885 -3.234065 -18.243677 26.407386 -10.064167 34.835232 4.345459 0.147453 -0.073671 1.032971 13.946436 -3.122618 2.765813 -0.777971 0.658537 -30.572786 42.057237 9.896983 78.014071 20.956756 -55.723635 -34.891829 0.040417 0.241793 -5.441080 0.351044 0.201947 7.293270 0.686723 0.467602 -3.696615 -0.996653 0.362935 0.610121 -3.521404 -2.780866 -5.246849 -2.046522 -0.862280 39.073938 -6.949751 1.035293 16.310995 -9.849873 -10.011671 1.702104 -71.261792 -13.943579 50.009544 6.105842 -7.595072 -4.343962 1.208647 -2.205923 -3.301319 -0.139044 0.245546 0.000000 0.000000 0.000000 0.000000 0.000000 0.000000 0.000000 12.409582 12.982640 5.299558 73.599760 22.440438 43.118795 -3.754728 7.894181 5.352171 -3.226512 1.253511 5.703420 0.960223 0.138842 -0.000000 0.000000 0.000000 0.000000 0.000000 0.000000 0.000000
22.054437 18.879279 31.530293 -2.342281 -11.712224 7.621386 -18.619569 3.080501 2.474038 -0.820372 2.019955 -27.365964 -2.909670 -17.996636 26.252078 -10.228339 33.941308 4.610597 0.104220 -0.290326 0.935585 13.953095 -3.209831 2.768905 -1.006871 0.796048 -30.180138 41.290926 10.497365 76.643681 21.302006 -54.941859 -35.144814 0.059694 0.313519 -5.193943 0.640109 0.029501 7.516785 0.711349 0.271312 -3.687487 -0.928457 0.163886 0.626818 -3.524651 -2.763844 -5.255121 -1.989248 -0.895845 39.194164 -7.086523 1.083071 16.557017 -9.783351 -10.152151 1.673420 -71.197219 -14.160175 49.741409 6.141802 -7.906435 -4.302224 1.231830 -1.967698 -3.198628 -0.142031 0.130303 -0.000000 0.000000 0.000000 0.000000 0.000000 0.000000 0.000000 12.403788 12.887522 5.323168 73.645972 22.097730 43.060531 -3.713164 7.464196 5.561811 -1.353015 0.529697 5.993991 0.206964 0.293029 -0.000000 0.000000 0.000000 0.000000 0.000000 0.000000 0.000000
